<svg xmlns="http://www.w3.org/2000/svg" width="1200" height="668.75" viewBox="0 0 960.000000 535.000000"><g transform="matrix(.1 0 0-.1 0 535)"><path d="m8223 5015c-77-18-109-34-148-75-38-41-179-136-270-183-104-53-157-72-298-102l-129-28-91 19c-66 14-132 19-237 19-126 0-154-3-218-24-89-29-222-104-317-177-38-30-108-83-154-119-82-64-84-65-145-65-33 0-117 11-186 25-145 28-272 32-384 10-74-14-78-13-113 7-38 23-42 23-244 19-85-2-107 1-205 33-191 62-269 77-420 83-132 5-147 4-233-21-110-31-182-67-280-138-40-29-96-67-124-83-56-33-123-112-135-159-7-26-19-34-92-63-47-18-134-48-195-65-109-32-112-32-335-33h-225l-154-52c-145-50-214-63-255-47-26 10-18 34 28 83 40 44 44 52 50 117 5 51 2 92-9 145-34 150-45 178-97 237-27 31-59 74-69 94-23 46-45 58-113 65-46 5-64 1-132-30-93-41-125-51-220-71-132-27-217-86-317-220-73-99-105-162-147-291-39-118-105-262-194-424l-66-117-71 8c-174 21-384-60-506-196-27-29-68-66-93-81-51-31-116-90-133-120-6-11-14-45-18-75-3-30-18-94-33-142-19-64-24-93-17-111 10-26 82-67 119-67 17 0 24-9 33-42 33-123 147-270 312-402 81-65 232-165 281-187 60-26 152-38 216-28 70 10 108 51 139 147 36 108 50 118 198 138 119 15 169 29 176 48 3 7 18 16 33 20 22 6 31 2 55-26 15-18 33-45 39-59 13-30 61-59 140-84 114-37 135-51 159-110 63-151 220-235 446-238 117-2 169 22 238 108 49 61 62 68 145 78 37 5 42 3 42-16 0-11 27-86 59-166 94-232 113-328 91-451-21-119-71-144-310-159-80-5-153-13-164-17-10-4-60-48-110-98-50-50-121-119-157-152-37-34-79-83-95-110-15-27-51-75-81-106-36-39-53-65-53-83 0-35 17-65 37-65 11 0 14-6 10-22-16-58 49-117 114-104 19 3 42 0 59-9 16-8 52-15 79-15 40 0 55-5 75-25 20-20 35-25 72-25 68 0 121 30 224 124 116 108 162 132 299 156 129 23 234 59 311 105 96 58 130 112 130 209 0 54 85 499 116 605 9 30 34 95 57 145l41 91 4 145c3 122 1 159-17 233-12 49-21 118-21 154v65l48 43c26 24 90 91 142 150 105 119 148 145 335 205 145 46 247 50 388 16 169-41 308-30 434 32 83 42 177 60 348 67 284 11 379 20 421 42 21 12 79 31 129 43 168 43 345 124 474 218 35 26 71 52 80 59 9 6 52 21 96 33 44 12 98 33 120 47 78 51 193 153 199 177 5 19 33 38 128 86 195 98 302 166 405 259 52 47 121 102 152 121 31 20 74 48 96 63l39 27 19-50c18-49 18-51-2-130-29-110-28-145 7-179 15-15 34-30 42-33 13-4 16-19 19-80 2-28 59-86 99-99 20-6 50-22 65-35 16-13 33-24 38-24 5 0 27-18 49-40 34-34 45-40 83-40 23 0 48 5 54 11 9 9 19 7 39-7 62-44 67-45 149-39 44 4 98 8 120 9 65 5 83 14 129 74 24 31 54 66 66 77 31 28 66 101 83 172 13 57 12 64-19 189-40 161-54 297-54 524 0 201-19 303-72 398-34 60-68 85-139 102-42 10-57 9-112-9-36-12-91-42-128-70l-64-49-12 62c-35 186-128 257-290 221m137-55c67-34 110-118 110-216 0-52-1-54-42-78-56-32-196-80-295-102-58-13-134-17-293-19-245-2-310-14-455-84-95-47-266-159-350-230-71-61-105-77-295-143l-144-50-81 16c-104 20-275 36-393 36-79 0-97 3-121 21-30 22-60 21-242-7-35-5-36-4-53 39-9 24-32 62-51 84l-35 41 115 12c136 15 214 10 315-21 131-39 400-26 400 20 0 16-20 24-33 13-7-5-21-12-32-15-15-5-14-3 5 11 14 9 45 35 70 58 86 78 182 143 293 199 210 105 370 113 560 28 84-37 114-39 109-7-2 17 6 22 60 33 227 47 535 194 633 304 39 42 52 50 107 62 85 18 93 18 138-5m530-197c75-75 82-108 90-433 8-299 14-342 59-485 17-52 31-113 31-135 0-55-40-137-89-184-22-22-46-56-52-75-23-71-38-83-84-76-27 4-64 0-103-11l-60-17-62 32c-57 30-68 32-120 26-54-6-58-5-79 22-19 23-21 35-16 73 6 37 18 56 74 115 87 92 99 126 81 241-11 79-16 90-56 138-57 66-90 115-99 144-6 22-5 22 79 22 86 0 108 9 86 35-22 26-216 20-330-10-170-46-293-117-495-287-55-46-129-104-165-128-76-52-313-173-307-156 15 39 17 56 8 56-21 0-69-61-90-116-41-107-129-187-249-224-31-10-59-16-61-15-7 7 44 72 112 141 65 67 77 94 41 94-24 0-101-78-170-172-92-125-201-207-374-279-65-28-250-82-257-75-2 1 10 27 26 57 77 145 91 368 36 580-6 26-4 27 46 38 29 7 97 17 151 23 86 10 102 10 132-5 27-12 37-13 45-4 25 31-36 57-134 57-33 0-102-9-154-20-52-11-97-20-100-20-4 0-12 19-18 43-13 48-89 166-146 226l-38 41 113-1c126-1 183-8 278-35 134-38 463-10 434 38-4 6-40 7-93 3-47-4-84-5-81-2 3 2 39 14 81 25 124 34 233 94 361 196 135 109 218 158 337 199 109 38 252 47 354 23 89-21 102-20 233 9 147 33 180 44 309 101 94 41 119 57 170 110 82 84 118 102 214 103 51 1 56-1 101-46m-6429-286c20-14 37-36 43-57 6-19 31-55 56-80 40-38 50-57 69-125 27-95 36-175 27-239-6-35-19-60-58-106l-51-60h-96c-53 0-113-4-134-9-82-19-171-112-138-144 11-9 14-9 18 1 11 30 61 77 101 95 52 22 126 19 295-13l99-19 71 23c40 13 120 42 179 65l108 41 232-1c214-1 239 1 303 21 108 34 294 108 354 141 30 16 62 29 70 29 18 0 224-69 285-95l39-17-69-37c-70-38-95-71-54-71 25 0 70 22 126 62 41 29 42 30 75 13 109-56 225-164 288-268 60-101 84-173 88-272 4-81 2-100-27-185-32-99-111-253-161-313-16-19-41-38-56-41-73-17-222-83-287-127-40-26-105-83-145-125-40-41-74-74-76-72-2 1 1 30 7 63 10 61 5 248-7 297-7 26-6 26 51 33 105 12 158 28 162 49 4 17 0 18-34 12-22-4-59-12-84-16-80-15-139-12-170 10-16 11-42 23-59 26-17 4-31 10-31 15 0 22 50 117 74 138 31 29 33 41 7 41-27 0-87-71-107-128l-18-50-118-7c-77-4-148-2-206 6-112 16-155 6-274-63-85-49-188-88-233-88-12 0-42 9-66 19-27 12-73 21-119 23-69 3-75 2-75-17 0-18 8-20 84-25 74-4 86-8 99-28 16-24 16-24-24-20-33 2-39 0-39-17 0-52 120-21 359 93l140 66h245c239 0 247-1 288-23 55-32 80-68 98-143 14-58 13-79-6-257l-22-195 22-135c11-75 24-154 27-176 4-30-18-138-92-440-127-526-124-508-124-596 0-69-3-80-32-120-39-54-48-62-119-99-63-33-139-53-254-70-129-19-247-83-355-195-30-31-67-63-82-71-37-19-81-18-108 4-19 15-21 22-11 40 18 33-8 41-31 9-16-22-28-27-62-27-30 0-48 6-60 19-17 18-15 21 31 73 27 30 65 81 86 114 38 63 196 216 264 255 21 12 47 36 58 53 17 26 28 32 63 34 50 4 53 25 4 30-40 4-90-22-110-59-10-16-29-33-43-38-46-16-238-201-266-256-14-27-50-79-79-115-30-36-59-71-65-78-16-19-56-14-86 12l-28 25 36 38c20 21 45 54 54 73 25 49 122 180 153 208 15 13 59 45 98 72 38 26 84 64 101 83 17 20 49 47 71 61 48 30 58 44 39 52-24 9-73-22-114-71-20-25-62-61-93-81-124-82-196-161-285-313-20-34-38-61-40-61-2 0-15 4-29 10-37 14-32 40 15 85 23 22 61 69 85 105 58 86 64 92 176 188 54 46 105 96 114 111 25 42 61 58 149 66 110 9 276 42 328 64 74 32 80 46 89 189 4 70 4 147 1 172-6 47-66 202-127 330-51 105-48 180 10 332 21 56 11 77-24 52-38-26-65-92-70-171l-5-71-34-7c-45-8-73 2-73 26 0 29-16 23-30-11-7-16-45-60-84-98-81-77-128-96-231-95-107 1-265 54-312 105-24 26-53 91-53 119 0 31-39 57-148 99-57 22-113 47-124 54-10 8-39 42-64 77-85 122-142 166-158 123-8-21 1-34 23-34 19 0 70-35 61-42-33-23-322-83-335-70-10 10-5 81 11 151 9 39 13 82 10 96-9 34-81 105-107 105-18 0-17-4 15-42 20-23 36-51 36-62 0-71-80-329-133-429-36-68-46-75-125-83-82-9-132 16-324 159-218 162-313 272-365 417-40 115-27 324 29 439 42 87 150 195 243 243 96 49 161 63 290 62 93 0 118-4 162-23 58-26 139-105 171-167 18-35 28-42 89-62 110-36 218-24 252 27 15 24 15 24-9 18-14-3-35-9-47-12-22-7-23-5-23 58 0 61 3 68 40 116 54 68 161 124 238 125 48 1 56-2 83-32 25-28 29-39 23-66-4-22-1-36 7-41 18-11 39 23 39 62 0 97-171 136-302 69-94-48-151-97-164-141l-11-40-28 89c-27 84-28 93-16 149 17 83 51 155 117 248 68 97 99 186 108 317 7 94 33 197 67 264 35 68 19 90-28 41-47-50-72-123-99-284-28-172-57-249-140-365-62-86-97-196-90-277 6-58 5-59-40-111l-45-53-52 50c-50 49-115 86-149 87-26 0-23 10 28 70 57 70 120 198 179 370 49 141 127 306 178 377 33 47 150 144 206 172 20 10 90 30 156 45 90 20 134 35 175 61 65 41 86 43 131 12m2434-96c50-10 104-25 120-31l30-13-31-7c-67-15-57-24 52-42 124-20 226-65 335-144 35-26 93-61 128-77l65-29 189 18 188 17 75-74c116-115 151-181 204-391 38-147 21-381-36-508-53-117-96-139-293-151-368-23-446-36-582-98-122-55-263-65-332-22-18 10-53 22-78 26l-47 7 43 91c67 141 89 231 90 362 0 116-23 210-64 264-37 48-38 12-3-76 33-81 36-97 36-188 0-77-5-117-23-175-29-92-93-212-128-240-28-22-112-50-150-50-22 0-22 1 14 57 78 123 143 312 143 418 0 98-41 220-118 352-62 106-120 165-209 211-104 54-391 166-478 188-38 9-72 19-74 20-2 2 4 13 15 25 80 88 234 63 513-82 111-58 141-65 141-35 0 20-48 53-118 81-31 12-92 39-135 60-89 43-89 54-1 82 30 9 54 23 54 30 0 23-55 14-126-21-58-30-75-34-116-29-27 3-51 10-54 14-8 13 86 76 156 105 36 14 115 39 175 55 100 27 121 29 225 24 63-2 156-13 205-24m480-87c119-7 164-24 216-81 26-28 69-95 69-107 0-9-51-7-92 4-20 6-59 26-86 44-27 19-100 62-163 96-65 35-101 59-84 56 17-3 80-8 140-12m2975-159c0-8 37-69 81-135 77-113 82-123 82-173 0-63-17-98-73-152-56-54-73-89-80-160l-5-60-25 26c-14 14-44 36-67 48-60 30-83 58-83 100 0 29-9 44-47 83-46 47-46 47-36 90 6 24 19 64 29 90l18 48-27 55c-15 31-27 61-27 68 0 13 197 85 238 86 13 1 22-5 22-14m-6601-901c17-36 31-82 31-101 0-32-2-35-22-29-13 4-36 9-51 13-18 4-38 20-54 44l-26 39 44 49c24 27 45 49 46 50 0 1 15-29 32-65m-1061-166c-7-13-37-49-65-80-29-31-53-62-53-69 0-7-3-10-6-7-3 3-1 24 5 46 8 26 27 55 61 86 54 50 78 60 58 24m-56-150c-8-35-23-81-35-103-11-22-31-61-45-87-21-42-42-55-42-28 0 33 119 280 135 280 1 0-5-28-13-62m-22-213c0-52-1-55-25-55-16 0-25 6-25 15 0 17 37 95 45 95 3 0 5-25 5-55"/><path d="m8165 4753c-22-6-45-22-45-32 0-3 4-12 9-19 6-10 15-9 43 8 30 17 40 19 64 10 16-6 37-19 47-27 13-12 20-14 29-5 12 12-2 36-31 51-22 12-92 20-116 14"/><path d="m6885 4413c-22-15-77-55-121-89-75-56-215-124-258-124-19 0-31-19-19-31 13-13 111 13 168 44 28 15 92 59 144 97 51 39 105 73 120 76 43 11 61 23 55 39-9 23-45 18-89-12"/><path d="m8347 4530c-56-38-108-54-207-64-25-3-46-5-47-5-2-1-3-8-3-16 0-25 41-27 121-6 80 20 186 69 207 94 10 11 9 17-1 25-10 9-27 2-70-28"/><path d="m8683 4560c-42-10-63-27-63-51 0-24 27-25 52-2 10 9 36 17 60 17 35 1 43-3 57-28 20-35 39-44 47-22 7 19-18 61-43 74-29 16-76 21-110 12"/><path d="m7916 4283c-75-117-338-270-517-301-31-5-45-13-47-26-8-40 133 1 307 89 197 98 301 183 301 245 0 40-15 38-44-7"/><path d="m7019 3984c-53-40-110-64-156-64-44 0-65-16-42-32 43-28 191 19 232 75 31 41 10 54-34 21"/><path d="m7583 3907c-59-51-149-100-205-112-16-3-28-12-28-20 0-39 120 4 240 85 60 41 86 72 75 90-10 17-19 12-82-43"/><path d="m8856 3577c-35-18-44-19-88-7-56 14-118 6-118-15 0-21 32-35 53-23 12 6 28 6 49-1 46-16 87-13 135 10 28 14 43 27 43 40 0 24-23 23-74-4"/><path d="m8561 3546c-19-23-19-70 1-74 11-2 20 8 28 32 16 49-2 75-29 42"/><path d="m6635 3430c-38-22-106-54-150-71-93-37-118-55-91-65 25-10 82 12 229 83 77 39 127 69 127 78 0 25-41 16-115-25"/><path d="m2190 4195c0-69 16-95 59-95 43 1 134 48 139 73 5 23-13 22-49-4-59-42-119-21-119 43 0 18-5 28-15 28-11 0-15-12-15-45"/><path d="m3803 3864c-34-7-88-21-119-30-52-15-55-17-40-32 14-15 24-14 118 7 115 26 168 45 168 60 0 14-50 12-127-5"/><path d="m3978 3730c-60-32-115-39-375-50-136-6-266-15-288-20-27-6-65-6-115 1-92 13-153-2-158-39-4-28 13-28 53-2 30 20 95 28 95 11 0-5-44-24-97-42-125-41-360-140-438-184-70-39-115-78-115-100 0-26 28-17 127 41 137 81 297 154 463 213 173 61 223 71 349 71 128 0 311 16 397 34 97 21 184 54 184 72 0 20-38 17-82-6"/><path d="m2600 3670c-48-13-139-63-185-101-78-64-127-70-192-23-21 15-23 15-30-1-4-13 3-27 27-48 42-38 62-34 210 40l116 58 118-12c90-10 124-17 143-33 40-32 135-22 149 15 10 24-2 29-28 11-30-21-64-20-96 3-32 22-113 41-180 42-46 0-46 1-24 16 37 26 21 46-28 33"/><path d="m4315 3599c-75-71-75-71-212-115-90-29-147-42-165-39-20 5-29 1-37-12-29-55 37-55 207 2 181 61 302 140 302 198 0 14-4 28-10 32-5 3-43-27-85-66"/><path d="m2871 3215c-179-32-209-56-219-173-5-53-6-55-58-88-34-22-68-55-91-89l-36-55 12-87c10-80 15-93 68-175 58-87 85-106 91-62 2 12-17 47-50 88-48 63-53 73-56 133-4 56-1 71 28 129 30 61 35 66 103 100 87 44 137 80 137 100 0 18-28 18-60-1-34-20-40-19-40 8 0 33 35 84 70 102 43 22 165 44 286 52 109 6 140 16 114 33-25 16-158 10-299-15"/><path d="m2375 3202c-72-40-213-139-265-187-27-25-71-50-110-65-74-26-90-37-90-56 0-22 29-17 99 16 35 17 65 29 67 27 2-2-3-24-12-50-16-48-16-93 1-91 6 1 18 24 27 50 45 124 146 228 305 316 73 40 94 68 51 68-13 0-45-13-73-28"/><path d="m3448 2850c-52-15-109-54-128-87-40-68-170-74-158-7 5 30-30 30-37 0-3-14-7-37-10-49-9-43 17-62 79-60 72 3 100 19 158 86 44 51 53 57 114 70 76 18 81 21 64 42-13 16-40 18-82 5"/><path d="m3720 2830c0-42 39-99 78-115 20-9 47-25 59-37 13-12 29-18 38-14 29 11 11 40-34 57-46 17-73 43-103 98-19 35-38 41-38 11"/><path d="m1990 2650c0-5 12-16 28-24 42-22 68-56 87-115 12-35 32-68 59-95 86-85 326-182 326-131 0 20-29 37-145 85-115 48-172 83-181 114-23 77-57 134-94 155-40 22-80 28-80 11"/><path d="m3398 2569c-42-23-14-49 51-49 49 0 101-34 124-82 16-33 17-45 7-93-11-53-8-75 10-75 14 0 30 61 30 115 0 41-6 60-28 91-44 60-157 114-194 93"/><path d="m2649 2387c-88-66-143-168-123-225 17-47 38-33 44 28 7 70 16 86 90 152 33 30 60 60 60 66 0 21-27 13-71-21"/><path d="m3731 1283c-29-110-51-203-51-212 0-6 13-17 30-26l29-15-6 48c-5 41 4 125 23 215 10 42-14 33-25-10"/><path d="m3188 875c-15-8-29-24-33-35-3-10-40-47-81-82-81-68-164-168-164-199 0-31 12-22 59 42 24 33 80 90 125 126 44 35 86 77 93 93 8 19 22 30 43 35 35 8 41 35 8 35-13-1-35-7-50-15"/><path d="m5406 3808c-33-51-59-125-64-185-4-58-3-63 16-63 23 0 32 18 32 66 0 19 11 67 25 106 14 39 25 77 25 85 0 20-18 15-34-9"/><path d="m5507 3245c-27-7-74-26-105-41-52-25-67-28-174-28-114-1-118-2-118-23 0-18 7-23 47-29 25-4 75-3 110 3 35 5 63 8 63 7 0-13-33-73-47-86-27-25-99-54-165-68-32-6-58-15-58-20 0-5-3-15-6-24-5-14 4-16 65-16 43 0 83 6 99 14 35 18 88 75 144 153 65 90 88 106 157 105 31 0 108-8 171-17 196-30 490-2 490 46 0 23-10 23-97 3-105-24-230-21-350 10-112 29-154 31-226 11"/><path d="m8182 3810c-14-24-16-66-2-75 9-6 40 56 40 81 0 21-23 17-38-6"/><path d="m8230 3803c0-5 39-30 86-56 63-36 91-47 109-43 14 4 25 12 25 20 0 20-11 26-29 17-18-10-57 5-110 44-32 23-81 34-81 18"/><path d="m8308 3652c-28-31-40-64-33-89 8-33 29-24 33 15 2 17 10 36 18 42 16 14 19 36 5 44-4 3-15-2-23-12"/></g></svg>